<svg xmlns="http://www.w3.org/2000/svg" version="1.1" xmlns:xlink="http://www.w3.org/1999/xlink" xmlns:svgjs="http://svgjs.com/svgjs" width="1440" height="560" preserveAspectRatio="none" viewBox="0 0 1440 560"><g mask="url(&quot;#SvgjsMask1000&quot;)" fill="none"><rect width="1440" height="560" x="0" y="0" fill="#1e3266"></rect><path d="M1488 560L0 560 L0 280.24Q63.54 271.78, 72 335.33Q87.94 279.27, 144 295.21Q172.7 251.91, 216 280.61Q274.91 267.52, 288 326.43Q363.55 281.98, 408 357.52Q429.67 259.19, 528 280.85Q603.04 235.89, 648 310.93Q717.88 260.81, 768 330.7Q819.99 310.69, 840 362.67Q866.7 317.37, 912 344.07Q958.42 270.5, 1032 316.92Q1098.03 262.95, 1152 328.98Q1200.82 305.8, 1224 354.62Q1225.81 284.43, 1296 286.24Q1362 232.24, 1416 298.24Q1463.47 273.71, 1488 321.17z" fill="#182f5d"></path><path d="M1464 560L0 560 L0 437.59Q37.8 403.38, 72 441.18Q86.59 335.77, 192 350.36Q233.82 320.18, 264 362Q356.77 334.77, 384 427.54Q392.52 364.06, 456 372.59Q499.49 344.07, 528 387.56Q546.15 333.71, 600 351.86Q647.42 327.28, 672 374.7Q741.88 372.59, 744 442.47Q767.02 393.49, 816 416.51Q826.78 355.29, 888 366.08Q955.89 313.97, 1008 381.86Q1055 308.87, 1128 355.87Q1170.19 326.06, 1200 368.25Q1255.47 351.73, 1272 407.2Q1306.12 321.32, 1392 355.44Q1434.13 325.57, 1464 367.71z" fill="#25467d"></path><path d="M1536 560L0 560 L0 460.62Q77.62 418.24, 120 495.86Q129.53 433.39, 192 442.92Q264.94 395.86, 312 468.79Q368.46 453.25, 384 509.72Q408.43 414.15, 504 438.58Q572.04 386.62, 624 454.65Q704.11 414.76, 744 494.87Q792.22 423.09, 864 471.31Q906.08 441.38, 936 483.46Q955.81 431.27, 1008 451.08Q1049.49 420.57, 1080 462.06Q1122.67 384.73, 1200 427.4Q1245.77 401.17, 1272 446.95Q1329.95 432.9, 1344 490.85Q1368.43 443.28, 1416 467.71Q1499.88 431.59, 1536 515.47z" fill="#356cb1"></path><path d="M1560 560L0 560 L0 510.73Q53.9 492.63, 72 546.53Q102.16 504.69, 144 534.86Q205.41 524.27, 216 585.68Q237.37 487.04, 336 508.41Q378.73 479.14, 408 521.87Q477.61 471.48, 528 541.09Q603.63 496.72, 648 572.35Q658.38 510.73, 720 521.11Q772.33 453.44, 840 505.77Q891.75 485.52, 912 537.28Q968.01 521.29, 984 577.31Q1007.31 480.62, 1104 503.92Q1149.55 477.47, 1176 523.02Q1220.25 495.27, 1248 539.52Q1292.48 464, 1368 508.49Q1429.35 497.84, 1440 559.19Q1511.65 510.85, 1560 582.5z" fill="white"></path></g><defs><mask id="SvgjsMask1000"><rect width="1440" height="560" fill="#ffffff"></rect></mask></defs></svg>